<svg xmlns="http://www.w3.org/2000/svg" viewBox="0 0 841.9 595.3">
  <g fill="#61DAFB">
    <path d="m666.3 296.5c0-32.5-40.7-63.3-103.1-82.4 14.4-63.6 8-114.2-20.2-130.4-63.6-39.3-159.6 15.3-159.6 15.3s-36.1-30.4-107.4 5c-28.3 14.4-49.6 40.2-56.8 42.8-48.7 23.4-66.3 41.8-84.7 63.7-24.4 32.5-37.5 71.4-37.5 71.4s-31.8 56.8-19.3 141.3c4.7 28.7 19.3 52.2 34.9 72.6-1.7 36.6-6.6 76.3-19.3 104.9-32.8 91.3 5.2 165.8 37.3 219.8 4.5 13 10.3 27.3 22.9 42.1-32.6 66.1-66 81.9-101.4 86.3-53.4-18.1-90.5-45.8-90.5-45.8l-17.9-23.9c-66.6 4.3-122.3-9.7-140.6-51.5-40-97.6 32.8-133.4 66.6-154.2-98.6-27.8-147.4-89.6-147.4-89.6s11.5-69.3 98.6-139.4c21.2-19.5 37.1-28.8 28.6-17.5-63.3-9.8-115.7 20.2-115.5 117.6 0 107.5 82.4 234.8 333.2 324.1-3.7 57.5 25.8 108.9 75.7 115.6 11.1 18.7 22.9 29.5 45.6 38.1 18.8-50.7 29.9-106.5 29.9-106.5-103.9-40.8-167.7-189.1-167.7-189.1z"/>
    <path d="m296.6 551.7c122.7-35.3 171.1-93.9 171.1-93.9 71.7 26.7 142.4 28.6 142.4 28.6 27.9-75.7 25.7-142.9 25.7-142.9-25.9-30.3-63.4-51.2-101.7-67.4-21.2-43.2-21-57.9 0.2-82.6 12.6 1.4 29.4 3.3 52.6 2.2 81.6-42.9 82.6-129.4 82.6-129.4s-68.1-37.6-133.9-39.6c0 0-34.5 23.1-34.5 101.4 0 68.7-40.2 134.9-100.7 178.1-20.9 16.9-43.4 30.4-66.5 41.5-17.8 22.7-17.2 53.2-2.2 74.7 66.7 36.6 129.3 56.4 129.3 56.4z"/>
    <path d="m167.9 330.2c-31.3-10.8-58.8-28-80.8-48.5l-7.9-11.3c-21.2-30.9-25-65.1-25-65.1s14.2 80.4 36.4 97.5c24.1-18.6 29.6-57.3 41.2-78.3-12.3-4.9-18.1-8.6-21-13.8z"/>
    <path d="m103.6 483.2c-10.7 13.1-30.8 35.3-54.8 47.4-27.9 12.3-63 8.6-63 8.6s21.1 3.8 39.4 1.6c42.2-8.6 51.7-28.5 51.7-28.5-1.8-4.6-3.8-8.3-6.1-12.1z"/>
    <path d="m40.3 422.9c-11.3 1.3-22.6-2-30.5-6.6-15.5-8.9-8.3-24.1-8.3-24.1s6.2-3.6 12.9-1.9c10.5 3.2 21 11.8 21 11.8l-1.4 4.8 1.4-4.8c3.3 0 6.8 2.7 6.8 2.7s2.6-1.6 2.6-3.7c0-2.1-1.8-2.7-2.1-2.8z"/>
    <path d="m464.4 433.5c-67.1 34.4-125.7 36.3-125.7 36.3l-2.7 40.2c0 0-50.9 32.6-93.7 12.8 37.7-42.9 11-119.9 9-120.2 0-64.6 67.4-173.5 67.4-173.5s-3.4 45.5-9.7 85.9c-11.2 14.5-37.2 67.3-19.5 97.2l33.2 47.4 7.6-14.8c12.6-29.8 50.6-17.8 50.6-17.8z"/>
    <path d="m251 387.4c-24.4-13.8-29.3-17.5-63.4 5.7-61 39.5-37.9 90.3-19.5 119.2 31.2 13.7 41.7 15.9 41.7 15.9s-3.7-21.6 4.8-37.8c16.9-29.8 14.5-57.6 14.5-57.6s11.9-.8 26.2-2.1c8.9 6.6 23.4 14.1 27 22.2 6.3-28.5 1.6-53.7-1.6-53.7-4.6-3.6-11.3-14.2-11.3-14.2-20.8-16.9-29.8-31.3-18.1-44.1 12-13.9 8.6-18.4 8.6-18.4-25.5 20.6-35.4 14.2-35.4 14.2z"/>
  </g>
</svg>